<?xml version="1.0" encoding="iso-8859-1"?>
<!-- Generator: Adobe Illustrator 19.0.0, SVG Export Plug-In . SVG Version: 6.00 Build 0)  -->
<svg version="1.1" id="Layer_1" xmlns="http://www.w3.org/2000/svg" xmlns:xlink="http://www.w3.org/1999/xlink" x="0px" y="0px"
	 viewBox="0 0 512 512" style="enable-background:new 0 0 512 512;" xml:space="preserve">
<circle style="fill:#E16B5A;" cx="256" cy="256" r="256"/>
<path style="fill:#66401E;" d="M53.084,412C99.892,472.788,173.344,512,256,512s156.108-39.212,202.916-100H53.084z"/>
<path style="fill:#99602D;" d="M452.468,420c2.196-2.628,4.356-5.284,6.444-8H53.084c2.084,2.716,4.252,5.372,6.44,8H452.468z"/>
<path style="fill:#FFE1D9;" d="M132,300V172c0-8.8,7.2-16,16-16h216c8.8,0,16,7.2,16,16v128H132z"/>
<g>
	<path style="fill:#F2D6CE;" d="M364,164H148c-8.8,0-16,7.2-16,16v42c8.812,0,16.492-4.756,20.664-11.84
		c4.176,7.084,11.856,11.84,20.668,11.84s16.496-4.764,20.668-11.844c4.172,7.08,11.856,11.844,20.668,11.844
		s16.492-4.756,20.668-11.84C239.508,217.244,247.188,222,256,222c8.812,0,16.492-4.756,20.664-11.84
		c4.176,7.084,11.856,11.84,20.668,11.84s16.496-4.764,20.668-11.844c4.172,7.08,11.856,11.844,20.668,11.844
		s16.492-4.756,20.668-11.84C363.508,217.244,371.188,222,380,222v-42C380,171.2,372.8,164,364,164z"/>
	<path style="fill:#F2D6CE;" d="M364,156h-16c8.8,0,16,7.2,16,16v128h16V172C380,163.2,372.8,156,364,156z"/>
</g>
<path style="fill:#FFE1D9;" d="M92,412V284c0-8.8,7.2-16,16-16h296c8.8,0,16,7.2,16,16v128H92z"/>
<g>
	<path style="fill:#F2D6CE;" d="M404,268h-16c8.8,0,16,7.2,16,16v128h16V284C420,275.2,412.8,268,404,268z"/>
	<rect x="132" y="260" style="fill:#F2D6CE;" width="248" height="8"/>
</g>
<g>
	<rect x="248" y="152" style="fill:#198058;" width="12" height="4"/>
	<path style="fill:#198058;" d="M268,150c0-1.1-0.9-2-2-2h-24c-1.1,0-2,0.9-2,2l0,0c0,1.1,0.9,2,2,2h24C267.1,152,268,151.1,268,150
		L268,150z"/>
</g>
<path style="fill:#FFD464;" d="M268,78c0,7.736-6.264,14-14,14s-14-6.264-14-14c0-14,16-10,14-34C264,52,268,70.264,268,78z"/>
<path style="fill:#CC584C;" d="M261,85c0,3.868-3.132,7-7,7s-7-3.132-7-7c0-7,8-5,7-17C259,72,261,81.132,261,85z"/>
<path style="fill:#E6E6E6;" d="M254,100c-1.1,0-2-0.9-2-2V86c0-1.1,0.9-2,2-2s2,0.9,2,2v12C256,99.1,255.1,100,254,100z"/>
<rect x="244" y="96" style="fill:#F5F5F5;" width="20" height="52"/>
<g>
	<polygon style="fill:#CC584C;" points="244,120.828 264,136.832 264,131.172 244,115.172 	"/>
	<polygon style="fill:#CC584C;" points="244,136.828 257.96,148 264,148 264,147.172 244,131.172 	"/>
	<polygon style="fill:#CC584C;" points="244,104.828 264,120.832 264,115.172 244,99.172 	"/>
	<polygon style="fill:#CC584C;" points="260.036,96 252.96,96 264,104.832 264,99.172 	"/>
</g>
<path style="fill:#F2D6CE;" d="M404,276H108c-8.8,0-16,7.2-16,16v64c11.592,0,21.72-6.192,27.336-15.424
	c5.608,9.236,15.736,15.424,27.332,15.424c11.588,0,21.724-6.188,27.332-15.42c5.608,9.236,15.744,15.42,27.332,15.42
	c11.596,0,21.724-6.192,27.332-15.424C234.28,349.808,244.408,356,256,356c11.592,0,21.72-6.192,27.336-15.424
	c5.608,9.236,15.736,15.424,27.332,15.424c11.588,0,21.724-6.188,27.332-15.42c5.608,9.236,15.744,15.42,27.332,15.42
	c11.596,0,21.724-6.192,27.332-15.424C398.28,349.808,408.408,356,420,356v-64C420,283.2,412.8,276,404,276z"/>
<path style="fill:#F5F5F5;" d="M404,268H108c-8.8,0-16,7.2-16,16v64c11.592,0,21.72-6.192,27.336-15.424
	c5.608,9.236,15.736,15.424,27.332,15.424c11.588,0,21.724-6.188,27.332-15.42c5.608,9.236,15.744,15.42,27.332,15.42
	c11.596,0,21.724-6.192,27.332-15.424C234.28,341.808,244.408,348,256,348c11.592,0,21.72-6.192,27.336-15.424
	c5.608,9.236,15.736,15.424,27.332,15.424c11.588,0,21.724-6.188,27.332-15.42c5.608,9.236,15.744,15.42,27.332,15.42
	c11.596,0,21.724-6.192,27.332-15.424C398.28,341.808,408.408,348,420,348v-64C420,275.2,412.8,268,404,268z"/>
<path style="fill:#E6E6E6;" d="M404,268h-16c8.8,0,16,7.2,16,16v59.692c4.704,2.74,10.164,4.308,16,4.308v-64
	C420,275.2,412.8,268,404,268z"/>
<path style="fill:#F5F5F5;" d="M364,156H148c-8.8,0-16,7.2-16,16v42c8.812,0,16.492-4.756,20.664-11.84
	c4.176,7.084,11.856,11.84,20.668,11.84s16.496-4.764,20.668-11.844c4.172,7.08,11.856,11.844,20.668,11.844
	s16.492-4.756,20.668-11.84C239.508,209.244,247.188,214,256,214c8.812,0,16.492-4.756,20.664-11.84
	c4.176,7.084,11.856,11.84,20.668,11.84s16.496-4.764,20.668-11.844c4.172,7.08,11.856,11.844,20.668,11.844
	s16.492-4.756,20.668-11.84C363.508,209.244,371.188,214,380,214v-42C380,163.2,372.8,156,364,156z"/>
<path style="fill:#E6E6E6;" d="M364,156h-16c8.8,0,16,7.2,16,16v35.8c4.252,3.828,9.828,6.2,16,6.2v-42C380,163.2,372.8,156,364,156
	z"/>
<rect x="132" y="172" style="fill:#CC584C;" width="248" height="8"/>
<rect x="364" y="172" style="fill:#BF5347;" width="16" height="8"/>
<rect x="92" y="292" style="fill:#CC584C;" width="328" height="8"/>
<rect x="404" y="292" style="fill:#BF5347;" width="16" height="8"/>
<g>
</g>
<g>
</g>
<g>
</g>
<g>
</g>
<g>
</g>
<g>
</g>
<g>
</g>
<g>
</g>
<g>
</g>
<g>
</g>
<g>
</g>
<g>
</g>
<g>
</g>
<g>
</g>
<g>
</g>
</svg>
